<svg width="561" height="489" viewBox="0 0 561 489" fill="none" xmlns="http://www.w3.org/2000/svg">
<path d="M553.462 112.005C533.302 50.9665 491.302 12.8845 428.022 2.2455L428.026 2.2494C418.588 0.667402 409.034 -0.082597 399.464 0.00720295C354.105 0.00720295 314.905 19.6092 282.424 56.0072C281.865 56.5658 281.302 57.6869 280.744 58.2455V58.2494C273.888 50.7338 266.596 43.6284 258.904 36.9684C231.185 13.0934 195.806 -0.0235911 159.224 0.00740895C89.7829 0.00740895 22.0239 45.3664 5.22387 120.407V120.411C-0.72143 145.177 -1.60033 170.888 2.63007 196.005C6.86447 221.118 16.1301 245.122 29.8641 266.571C54.6101 305.88 84.9851 341.352 120.024 371.851C168.239 415.531 220.774 454.183 276.824 487.211C278.047 488.329 279.652 488.93 281.305 488.891C282.687 488.856 284.035 488.469 285.226 487.77C354.667 445.211 419.626 397.051 476.746 338.25C504.742 310.523 527.672 278.113 544.508 242.488C552.317 226.254 557.426 208.851 559.625 190.968C559.743 189.777 560.125 188.628 560.747 187.609V142.808C558.508 132.449 556.266 122.089 553.465 112.007L553.462 112.005ZM521.208 182.005C520.747 183.455 520.555 184.97 520.645 186.486C518.966 200.302 514.993 213.74 508.887 226.248C493.668 257.803 473.004 286.428 447.848 310.807C402.489 357.846 349.289 400.409 280.968 443.527H280.964C233.359 413.843 188.394 380.121 146.564 342.727C114.267 314.739 86.3342 282.086 63.6852 245.844C41.4742 211.133 34.3963 168.86 44.0833 128.804C58.0833 67.202 114.083 38.644 160.003 38.644C187.323 38.5151 213.773 48.2612 234.48 66.085C238.402 69.4444 242.32 73.3662 246.8 77.847V77.8431C249.367 80.3275 251.796 82.9447 254.081 85.6829L287.683 119.285L314.003 80.0859C339.202 52.0859 367.202 38.6449 400.241 38.6449C407.554 38.6488 414.854 39.2113 422.081 40.3246C470.241 48.1644 501.042 75.0436 517.28 123.766C518.991 128.848 520.116 134.11 520.64 139.446C521.198 141.684 521.198 143.926 521.761 146.164V182.004L521.208 182.005Z" fill="black"/>
</svg>
