<svg width="561" height="489" viewBox="0 0 561 489" fill="none" xmlns="http://www.w3.org/2000/svg">
<path d="M560.027 142.997V187.798C559.589 188.787 559.253 189.818 559.019 190.876C556.773 208.751 551.667 226.146 543.898 242.396C526.777 277.798 503.836 310.072 476.027 337.876C419.3 396.899 354.007 444.786 284.507 487.336C282.05 489.231 278.62 489.231 276.163 487.336C220.304 453.977 167.793 415.309 119.363 371.866C84.6131 341.257 54.3901 305.866 29.5931 266.756C15.9561 245.276 6.77309 221.276 2.58509 196.178C-1.59851 171.08 -0.696111 145.397 5.23349 120.655C30.6595 7.58533 171.443 -38.6147 259.143 37.1593C266.647 43.6007 273.256 51.1043 280.76 58.4953H280.757C281.218 57.7219 281.725 56.9719 282.268 56.2531C321.467 12.4051 369.909 -7.19587 427.868 2.55013C491.427 13.1911 533.088 51.1591 553.368 112.25C556.153 122.367 558.38 132.633 560.032 142.996L560.027 142.997Z" fill="#f1515c"/>
</svg>
