<svg xmlns="http://www.w3.org/2000/svg" data-name="Layer 2" viewBox="0 0 32 40" x="0px" y="0px"><title>40</title><path d="M27,6H24V3a1,1,0,0,0-1-1H5A1,1,0,0,0,4,3V25a1,1,0,0,0,1,1H8v3a1,1,0,0,0,1,1H27a1,1,0,0,0,1-1V7A1,1,0,0,0,27,6ZM6,4H22V24H6ZM26,28H10V26H23a1,1,0,0,0,1-1V8h2Z"/><path d="M10,12a1,1,0,0,0,1-1,3,3,0,1,1,3,3,1,1,0,0,0-1,1v2a1,1,0,0,0,2,0V15.9A5,5,0,1,0,9,11,1,1,0,0,0,10,12Z"/><path d="M14,19a1,1,0,0,0-1,1v1a1,1,0,0,0,2,0V20A1,1,0,0,0,14,19Z"/><text x="0" y="47" fill="#000000" font-size="5px" font-weight="bold" font-family="'Helvetica Neue', Helvetica, Arial-Unicode, Arial, Sans-serif">Created by bamicon</text><text x="0" y="52" fill="#000000" font-size="5px" font-weight="bold" font-family="'Helvetica Neue', Helvetica, Arial-Unicode, Arial, Sans-serif">from the Noun Project</text></svg>